Coordinates
version=1
nRows=25
nColumns=28
inDegrees=yes

Units are S.I. units (second, meters, Newtons, ...)
Angles are in degrees.

endheader
time	pelvis_tilt	pelvis_list	pelvis_rotation	pelvis_tx	pelvis_ty	pelvis_tz	hip_flexion_r	hip_adduction_r	hip_rotation_r	knee_angle_r	ankle_angle_r	subtalar_angle_r	mtp_angle_r	hip_flexion_l	hip_adduction_l	hip_rotation_l	knee_angle_l	socket_flexion	socket_adduction	socket_rotation	socket_tx	socket_ty	socket_tz	foot_flex	lumbar_extension	lumbar_bending	lumbar_rotation
      0.00000000	      0.54141960	     -9.44827549	    -12.63069795	     -0.85578033	      0.98782062	      0.33228961	    -23.10650132	      8.12744748	     11.54973208	    -10.12147411	      8.08027202	     -8.15987138	     25.58301024	     25.05170046	    -15.72503042	      8.56698504	     -3.53198533	      0.00000000	      0.00000000	      0.00000000	      0.00000000	      0.00051284	      0.00000000	      2.58693144	    -13.44512995	      6.58196782	     19.90353405
      0.00416667	      0.47085628	     -9.57246739	    -12.66515631	     -0.85064787	      0.98708922	      0.33187922	    -23.19074082	      8.17559741	     11.58928538	    -10.38844361	      7.87593152	     -8.17950865	     25.59148866	     24.83686914	    -15.80769062	      8.56116566	     -3.45004796	      0.00000000	      0.00000000	      0.00000000	      0.00000000	      0.00002924	      0.00000000	      2.33551388	    -13.34391729	      6.71693918	     19.93347190
      0.00833333	      0.38155575	     -9.67776246	    -12.65548449	     -0.84528599	      0.98629532	      0.33130760	    -23.25577230	      8.22160956	     11.63628060	    -10.67150746	      7.70370662	     -8.18953090	     25.60200223	     24.64928381	    -15.83715600	      8.54390145	     -3.36489507	      0.00000000	      0.00000000	      0.00000000	      0.00000000	     -0.00040830	      0.00000000	      2.12084968	    -13.22826370	      6.85796147	     19.95806705
      0.01250000	      0.31128375	     -9.74100659	    -12.60159201	     -0.83967389	      0.98547619	      0.33066333	    -23.35788642	      8.22874866	     11.69378014	    -10.91024317	      7.61061755	     -8.18687957	     25.60627568	     24.48399408	    -15.79749546	      8.54377723	     -3.38225956	      0.00000000	      0.00000000	      0.00000000	      0.00000000	     -0.00086477	      0.00000000	      2.00157889	    -13.06691542	      6.95666559	     19.96769976
      0.01666667	      0.18690651	     -9.92866900	    -12.72700647	     -0.83407932	      0.98468577	      0.33021222	    -23.30369837	      8.30546628	     11.69260714	    -11.40319109	      7.21193991	     -8.20009354	     25.62201845	     24.23447325	    -15.98273460	      8.54409975	     -3.21232413	      0.00000000	      0.00000000	      0.00000000	      0.00000000	     -0.00156158	      0.00000000	      1.50376843	    -12.96575094	      7.19360498	     19.99572951
      0.02083333	      0.10298471	     -9.98323511	    -12.66060354	     -0.82816038	      0.98385224	      0.32948035	    -23.39960019	      8.30680578	     11.76705011	    -11.64586775	      7.12109315	     -8.19156474	     25.63122390	     24.07453533	    -15.91895499	      8.55273219	     -3.24094173	      0.00000000	      0.00000000	      0.00000000	      0.00000000	     -0.00207040	      0.00000000	      1.42373130	    -12.80076106	      7.28703191	     20.00835428
      0.02500000	     -0.03940132	    -10.13491307	    -12.77358971	     -0.82227795	      0.98306285	      0.32897449	    -23.29994513	      8.35597544	     11.79146789	    -12.19192987	      6.68371560	     -8.19620776	     25.66048506	     23.83503121	    -16.06004794	      8.58997814	     -3.08715321	      0.00000000	      0.00000000	      0.00000000	      0.00000000	     -0.00281028	      0.00000000	      0.95110248	    -12.65154482	      7.48604297	     20.03441571
      0.02916667	     -0.17948255	    -10.23968511	    -12.81560002	     -0.81622175	      0.98224357	      0.32835131	    -23.24146424	      8.38487154	     11.85798724	    -12.64971150	      6.32581839	     -8.19718818	     25.71762056	     23.65136456	    -16.10800107	      8.61275395	     -3.03446218	      0.00000000	      0.00000000	      0.00000000	      0.00000000	     -0.00350460	      0.00000000	      0.68103786	    -12.45922827	      7.64846566	     20.07312840
      0.03333333	     -0.35036018	    -10.32832395	    -12.85520404	     -0.81008757	      0.98139730	      0.32767548	    -23.13912074	      8.39930107	     11.91663346	    -13.11540741	      5.92030179	     -8.21696381	     25.83473839	     23.51745133	    -16.13468190	      8.59310947	     -3.02575740	      0.00000000	      0.00000000	      0.00000000	      0.00000000	     -0.00424806	      0.00000000	      0.40366256	    -12.22916876	      7.81310560	     20.12906037
      0.03750000	     -0.48319438	    -10.36819336	    -12.87215473	     -0.80386658	      0.98062535	      0.32703753	    -23.07470859	      8.37265404	     11.98069103	    -13.56365894	      5.59487688	     -8.23154500	     25.92309129	     23.33483647	    -16.10649102	      8.67822114	     -2.99902670	      0.00000000	      0.00000000	      0.00000000	      0.00000000	     -0.00496250	      0.00000000	      0.14084762	    -12.00614888	      7.88382739	     20.13966624
      0.04166667	     -0.55475552	    -10.39569387	    -12.78665106	     -0.79744293	      0.97991023	      0.32622270	    -23.16193222	      8.33702528	     12.06508857	    -13.83386528	      5.49740015	     -8.22415503	     25.93671644	     23.15113484	    -16.00003780	      8.70927553	     -3.08408452	      0.00000000	      0.00000000	      0.00000000	      0.00000000	     -0.00573850	      0.00000000	      0.06066391	    -11.80307519	      7.96524519	     20.14210774
      0.04583333	     -1.05681276	    -10.31588535	    -12.88231187	     -0.79102870	      0.97866667	      0.32556431	    -22.46620802	      8.23095792	     11.67264523	    -14.60912085	      3.89225899	     -8.49493439	     30.33444243	     23.37473039	    -15.92667696	      8.77173243	     -3.08255829	      0.00000000	      0.00000000	      0.00000000	      0.00000000	     -0.00647823	      0.00000000	     -0.34257074	    -11.14242035	      8.03554991	     20.06447245
      0.05000000	     -1.10211180	    -10.32908518	    -12.79149972	     -0.78456879	      0.97807852	      0.32472951	    -22.54785452	      8.18290387	     11.78104878	    -14.91553105	      3.78826247	     -8.47851245	     30.32799042	     23.16216935	    -15.80121730	      8.83556378	     -3.17590352	      0.00000000	      0.00000000	      0.00000000	      0.00000000	     -0.00730004	      0.00000000	     -0.43700468	    -10.94451685	      8.08919380	     20.05816014
      0.05416667	     -1.14939940	    -10.27166742	    -12.81866105	     -0.77853412	      0.97767615	      0.32410080	    -22.34883157	      8.06086643	     11.79403732	    -15.69351793	      3.21006757	     -8.46725335	     30.26901844	     22.89301621	    -15.68020759	      8.94014865	     -3.14371193	      0.00000000	      0.00000000	      0.00000000	      0.00000000	     -0.00794424	      0.00000000	     -0.87846259	    -10.86298764	      8.00309608	     19.97436817
      0.05833333	     -1.27434346	    -10.09997901	    -12.83267836	     -0.77191467	      0.97716469	      0.32340130	    -22.09562627	      7.79955194	     11.48476288	    -16.35206610	      2.45899758	     -8.44685721	     30.31975302	     22.71293682	    -15.41770236	      8.71818518	     -3.20146676	      0.00000000	      0.00000000	      0.00000000	      0.00000000	     -0.00863297	      0.00000000	     -1.03394618	    -10.54516049	      7.89497671	     19.88126028
      0.06250000	     -1.30244265	    -10.09623949	    -12.71148469	     -0.76532135	      0.97673404	      0.32254809	    -22.16534889	      7.75101998	     11.62304686	    -16.68625395	      2.35448889	     -8.42243355	     30.32557074	     22.50152622	    -15.27340159	      8.79219966	     -3.34923146	      0.00000000	      0.00000000	      0.00000000	      0.00000000	     -0.00952208	      0.00000000	     -1.12540874	    -10.33280441	      7.92425534	     19.86947222
      0.06666667	     -1.61527383	     -9.68479481	    -12.64501217	     -0.75906778	      0.97594312	      0.32171798	    -21.33791605	      7.32538276	     10.76785680	    -17.89292924	      1.44513345	     -7.78221827	     32.02890624	     22.66878960	    -14.77135920	      8.82917774	     -3.49737933	      0.00000000	      0.00000000	      0.00000000	      0.00000000	     -0.00985305	      0.00000000	     -1.46811988	     -9.82181441	      7.54847160	     19.48286278
      0.07083333	     -1.59810545	     -9.58699446	    -12.57800075	     -0.75289235	      0.97580009	      0.32093523	    -21.23364113	      7.18805799	     10.87280492	    -18.55460816	      0.97430288	     -7.78514223	     32.03112872	     22.42519503	    -14.55575064	      8.88184013	     -3.64769557	      0.00000000	      0.00000000	      0.00000000	      0.00000000	     -0.01048446	      0.00000000	     -1.67416642	     -9.74366871	      7.42780981	     19.41667122
      0.07500000	     -1.60580588	     -9.21762614	    -12.50182320	     -0.74631105	      0.97565125	      0.32018848	    -20.96819731	      6.74215654	     10.47902857	    -19.31989992	      0.13369358	     -7.79529009	     32.39087184	     22.19205697	    -14.05329696	      8.64069466	     -3.77651628	      0.00000000	      0.00000000	      0.00000000	      0.00000000	     -0.01088255	      0.00000000	     -1.81634252	     -9.49758627	      7.02785175	     19.25213180
      0.07916667	     -1.61604471	     -8.93547061	    -12.38884898	     -0.73996386	      0.97550389	      0.31936630	    -20.67055841	      6.41341743	     10.16259027	    -20.16457458	     -0.56089852	     -7.65550841	     32.88707306	     22.02020865	    -13.63247202	      8.54089819	     -3.97212501	      0.00000000	      0.00000000	      0.00000000	      0.00000000	     -0.01135391	      0.00000000	     -1.95873274	     -9.30103606	      6.71309856	     19.05766880
      0.08333333	     -1.58450019	     -8.76642626	    -12.31622232	     -0.73380661	      0.97550327	      0.31850422	    -20.38614592	      6.18430519	      9.96805070	    -21.09787280	     -1.19660227	     -7.62678839	     33.04103104	     21.79765346	    -13.33583351	      8.45377839	     -4.19439068	      0.00000000	      0.00000000	      0.00000000	      0.00000000	     -0.01190442	      0.00000000	     -2.09472367	     -9.22437976	      6.53827920	     18.90594744
      0.08750000	     -1.64607257	     -8.25076938	    -12.09185818	     -0.72733575	      0.97524548	      0.31744326	    -19.87662378	      5.59414920	      9.12678235	    -22.05285387	     -2.35116772	     -7.13387810	     37.01974691	     21.76334389	    -12.63076324	      8.37783587	     -4.45499185	      0.00000000	      0.00000000	      0.00000000	      0.00000000	     -0.01211532	      0.00000000	     -2.19543044	     -8.89247807	      5.99423464	     18.55861385
      0.09166667	     -1.59345617	     -8.00445058	    -12.00077031	     -0.72123164	      0.97540412	      0.31656980	    -19.54898890	      5.29941235	      8.93716864	    -23.04572996	     -3.06679150	     -7.17659146	     36.94122909	     21.54313610	    -12.24885255	      8.23961433	     -4.70881606	      0.00000000	      0.00000000	      0.00000000	      0.00000000	     -0.01249084	      0.00000000	     -2.28511978	     -8.82700469	      5.72124930	     18.39643492
      0.09583333	     -1.52420319	     -7.80092290	    -11.84081891	     -0.71531785	      0.97566735	      0.31568021	    -19.29091890	      5.12368256	      9.01428364	    -23.96220372	     -3.59456649	     -7.15893124	     36.89975253	     21.35942748	    -11.89414926	      8.28164404	     -5.01057827	      0.00000000	      0.00000000	      0.00000000	      0.00000000	     -0.01278961	      0.00000000	     -2.38765034	     -8.81460258	      5.43560956	     18.27182953
      0.10000000	     -1.54631613	     -7.14743969	    -11.65634343	     -0.70873431	      0.97574106	      0.31486483	    -18.70036448	      4.39608606	      8.13407751	    -25.12362652	     -4.52857815	     -6.96436268	     37.06043115	     21.24136333	    -11.07181348	      7.90681021	     -5.23722056	      0.00000000	      0.00000000	      0.00000000	      0.00000000	     -0.01269873	      0.00000000	     -2.42084055	     -8.47080995	      4.70506885	     17.91372557
